<?xml version="1.0" standalone="no"?>
<!DOCTYPE svg PUBLIC "-//W3C//DTD SVG 20010904//EN"
 "http://www.w3.org/TR/2001/REC-SVG-20010904/DTD/svg10.dtd">
<svg version="1.0" xmlns="http://www.w3.org/2000/svg"
 width="500.000000pt" height="500.000000pt" viewBox="0 0 500.000000 500.000000"
 preserveAspectRatio="xMidYMid meet">
<metadata>
Created by potrace 1.11, written by Peter Selinger 2001-2013
</metadata>
<g transform="translate(0.000000,500.000000) scale(0.100000,-0.100000)"
fill="#000000" stroke="none">
<path d="M2238 4605 c-2 -1 -43 -6 -93 -10 -49 -3 -103 -8 -120 -10 -16 -2
-57 -6 -90 -9 -33 -4 -71 -9 -85 -11 -14 -2 -45 -7 -70 -10 -56 -7 -189 -29
-240 -40 -14 -3 -37 -7 -53 -10 -58 -11 -166 -35 -272 -60 -60 -15 -118 -28
-127 -30 -38 -8 -285 -85 -320 -99 -51 -22 -105 -71 -131 -120 -29 -55 -30
-164 -3 -220 46 -92 158 -155 252 -140 41 6 249 65 319 90 33 12 105 29 290
70 39 9 121 25 154 30 18 3 43 8 55 10 11 3 66 11 121 19 55 9 114 18 130 20
17 3 64 7 105 11 41 3 86 8 100 10 61 13 502 11 630 -1 183 -19 410 -51 545
-79 117 -24 184 -39 256 -56 46 -12 92 -23 102 -25 11 -2 60 -18 110 -34 127
-41 265 -79 310 -85 90 -14 196 39 244 122 24 40 28 58 28 122 0 139 -56 205
-225 263 -174 60 -700 186 -885 212 -22 3 -51 7 -65 10 -57 11 -88 15 -140 21
-30 3 -62 7 -70 9 -8 3 -46 7 -85 11 -38 3 -86 8 -105 11 -41 5 -567 13 -572
8z"/>
<path d="M2259 3886 c-2 -2 -47 -7 -99 -10 -52 -4 -122 -11 -155 -16 -33 -5
-82 -11 -110 -15 -181 -22 -561 -115 -760 -185 -153 -54 -192 -76 -220 -125
-45 -76 -39 -93 162 -475 33 -63 95 -182 138 -265 43 -82 106 -204 140 -270
34 -66 96 -185 137 -265 163 -314 223 -429 278 -535 57 -109 136 -261 285
-550 43 -82 99 -190 125 -240 26 -49 89 -171 140 -270 155 -299 163 -315 170
-315 4 0 26 37 50 83 23 45 66 127 95 182 29 55 91 174 138 265 46 91 110 215
142 275 125 240 196 377 275 530 46 88 109 210 140 270 32 61 95 182 140 270
46 88 106 205 135 260 29 55 94 181 145 280 51 99 114 221 140 270 142 270
196 383 199 417 4 53 -30 112 -81 142 -91 53 -546 188 -743 221 -16 2 -41 7
-55 10 -41 8 -82 15 -130 21 -25 3 -54 7 -66 9 -11 2 -52 6 -90 10 -38 4 -85
9 -104 12 -40 5 -556 14 -561 9z"/>
</g>
</svg>
